<svg xmlns="http://www.w3.org/2000/svg" version="1.1" xmlns:xlink="http://www.w3.org/1999/xlink" xmlns:svgjs="http://svgjs.dev/svgjs" width="1440" height="1000" preserveAspectRatio="none" viewBox="0 0 1440 1000"><g mask="url(&quot;#SvgjsMask1121&quot;)" fill="none"><rect width="1440" height="1000" x="0" y="0" fill="rgba(137, 137, 172, 1)"></rect><path d="M1512 1000L0 1000 L0 754.27Q25.15 707.42, 72 732.58Q137.04 677.63, 192 742.67Q221.38 652.05, 312 681.43Q318.17 615.6, 384 621.77Q450.66 568.43, 504 635.09Q551.35 610.44, 576 657.79Q656.61 618.4, 696 699.01Q747.75 678.76, 768 730.51Q827.15 717.66, 840 776.81Q869.33 686.14, 960 715.47Q1011.56 647.03, 1080 698.58Q1104.12 602.7, 1200 626.82Q1267.05 573.87, 1320 640.92Q1383.75 632.67, 1392 696.42Q1474.37 658.78, 1512 741.15z" fill="rgba(203, 203, 236, 1)"></path><path d="M1488 1000L0 1000 L0 783.05Q100.13 811.17, 72 911.3Q56.7 776, 192 760.7Q240.96 689.66, 312 738.63Q366.44 721.07, 384 775.51Q444.13 763.64, 456 823.78Q480.53 776.31, 528 800.84Q538.63 739.47, 600 750.1Q628.59 706.69, 672 735.28Q772.19 715.47, 792 815.66Q858.55 810.21, 864 876.76Q888.63 829.38, 936 854.01Q937.51 735.52, 1056 737.04Q1194.29 755.33, 1176 893.61Q1166.07 763.68, 1296 753.75Q1322.83 708.58, 1368 735.41Q1446.13 693.54, 1488 771.68z" fill="rgba(233, 233, 250, 1)"></path><path d="M1488 1000L0 1000 L0 896.52Q39.16 863.68, 72 902.84Q127.89 886.74, 144 942.63Q242.8 921.43, 264 1020.23Q290.06 974.29, 336 1000.35Q333.12 925.47, 408 922.59Q433.36 875.95, 480 901.31Q499.19 848.5, 552 867.69Q674.46 918.15, 624 1040.62Q607.25 951.87, 696 935.12Q707.13 874.25, 768 885.39Q839.88 837.26, 888 909.14Q952.24 901.38, 960 965.62Q1029.37 962.99, 1032 1032.37Q1073.72 1002.09, 1104 1043.8Q1131.27 951.07, 1224 978.34Q1264.8 899.13, 1344 939.93Q1360.3 884.22, 1416 900.52Q1460.42 872.94, 1488 917.37z" fill="rgba(255, 255, 255, 1)"></path></g><defs><mask id="SvgjsMask1121"><rect width="1440" height="1000" fill="#ffffff"></rect></mask></defs></svg>