<svg xmlns="http://www.w3.org/2000/svg" version="1.1" xmlns:xlink="http://www.w3.org/1999/xlink" xmlns:svgjs="http://svgjs.dev/svgjs" width="1440" height="1000" preserveAspectRatio="none" viewBox="0 0 1440 1000"><g mask="url(&quot;#SvgjsMask1033&quot;)" fill="none"><rect width="1440" height="1000" x="0" y="0" fill="rgba(217, 158, 169, 1)"></rect><path d="M1488 1000L0 1000 L0 532.77Q68.6 529.37, 72 597.96Q158.91 564.87, 192 651.78Q209.89 597.67, 264 615.56Q284.01 515.57, 384 535.57Q428.12 459.69, 504 503.81Q564.14 491.95, 576 552.09Q643.03 499.13, 696 566.16Q748.32 546.48, 768 598.8Q782.1 540.9, 840 555Q861.57 504.57, 912 526.13Q978.17 472.3, 1032 538.46Q1092.18 526.64, 1104 586.82Q1205.98 568.8, 1224 670.78Q1249.64 624.42, 1296 650.06Q1326.97 609.03, 1368 640.01Q1377.15 529.16, 1488 538.31z" fill="rgba(252, 218, 223, 1)"></path><path d="M1488 1000L0 1000 L0 779.97Q46.6 706.57, 120 753.16Q99.78 660.94, 192 640.73Q252.51 581.25, 312 641.76Q436.76 646.52, 432 771.28Q408.82 676.1, 504 652.92Q531.64 608.56, 576 636.2Q672.22 612.42, 696 708.64Q709.77 650.41, 768 664.18Q844.77 620.95, 888 697.73Q914.98 652.71, 960 679.69Q984.41 632.11, 1032 656.52Q1073.85 626.37, 1104 668.22Q1128.58 620.8, 1176 645.38Q1255.93 605.31, 1296 685.24Q1330.46 599.7, 1416 634.17Q1460.62 606.79, 1488 651.41z" fill="rgba(255, 227, 231, 1)"></path><path d="M1512 1000L0 1000 L0 839.97Q35.68 755.65, 120 791.33Q160.89 712.22, 240 753.11Q307.02 700.13, 360 767.16Q428.72 715.88, 480 784.6Q533.69 766.29, 552 819.98Q626.63 822.61, 624 897.24Q610.92 764.16, 744 751.09Q818.07 705.16, 864 779.24Q921.86 765.1, 936 822.96Q1019.38 834.35, 1008 917.73Q988.45 778.18, 1128 758.63Q1236.57 795.2, 1200 903.78Q1193.03 776.81, 1320 769.83Q1370.1 699.93, 1440 750.03Q1504.75 742.78, 1512 807.53z" fill="rgba(255, 237, 240, 1)"></path><path d="M1560 1000L0 1000 L0 1048.03Q-0.03 928, 120 927.97Q140.38 876.35, 192 896.72Q233.6 866.32, 264 907.92Q369.56 893.48, 384 999.05Q405.52 948.57, 456 970.08Q476.29 870.38, 576 890.67Q621.92 864.59, 648 910.51Q730.43 920.94, 720 1003.38Q719.81 883.19, 840 883.01Q930.04 901.05, 912 991.08Q900.07 907.15, 984 895.22Q1034.6 825.82, 1104 876.41Q1157.11 857.52, 1176 910.63Q1219.61 882.24, 1248 925.84Q1344.59 950.43, 1320 1047.02Q1299.83 906.85, 1440 886.68Q1558.18 884.86, 1560 1003.03z" fill="rgba(255, 255, 255, 1)"></path></g><defs><mask id="SvgjsMask1033"><rect width="1440" height="1000" fill="#ffffff"></rect></mask></defs></svg>