<svg id="visual" viewBox="0 0 900 600" width="900" height="600" xmlns="http://www.w3.org/2000/svg" xmlns:xlink="http://www.w3.org/1999/xlink" version="1.1"><path d="M0 235L13.7 227.8C27.3 220.7 54.7 206.3 82 202.8C109.3 199.3 136.7 206.7 163.8 215.8C191 225 218 236 245.2 240.2C272.3 244.3 299.7 241.7 327 239.7C354.3 237.7 381.7 236.3 409 234.8C436.3 233.3 463.7 231.7 491 228.2C518.3 224.7 545.7 219.3 573 218C600.3 216.7 627.7 219.3 654.8 222.3C682 225.3 709 228.7 736.2 231.3C763.3 234 790.7 236 818 231C845.3 226 872.7 214 886.3 208L900 202L900 0L886.3 0C872.7 0 845.3 0 818 0C790.7 0 763.3 0 736.2 0C709 0 682 0 654.8 0C627.7 0 600.3 0 573 0C545.7 0 518.3 0 491 0C463.7 0 436.3 0 409 0C381.7 0 354.3 0 327 0C299.7 0 272.3 0 245.2 0C218 0 191 0 163.8 0C136.7 0 109.3 0 82 0C54.7 0 27.3 0 13.7 0L0 0Z" opacity=".2" fill="#FFFFFF" fill-opacity="1"></path><path d="M0 172L13.7 172C27.3 172 54.7 172 82 175.7C109.3 179.3 136.7 186.7 163.8 191.3C191 196 218 198 245.2 199.3C272.3 200.7 299.7 201.3 327 194.7C354.3 188 381.7 174 409 169C436.3 164 463.7 168 491 173.5C518.3 179 545.7 186 573 189C600.3 192 627.7 191 654.8 194C682 197 709 204 736.2 205.5C763.3 207 790.7 203 818 199.5C845.3 196 872.7 193 886.3 191.5L900 190L900 0L886.3 0C872.7 0 845.3 0 818 0C790.7 0 763.3 0 736.2 0C709 0 682 0 654.8 0C627.7 0 600.3 0 573 0C545.7 0 518.3 0 491 0C463.7 0 436.3 0 409 0C381.7 0 354.3 0 327 0C299.7 0 272.3 0 245.2 0C218 0 191 0 163.8 0C136.7 0 109.3 0 82 0C54.7 0 27.3 0 13.7 0L0 0Z" opacity=".3" fill="#FFFFFF" fill-opacity="1"></path><path d="M0 155L13.7 156.3C27.3 157.7 54.7 160.3 82 158.5C109.3 156.7 136.7 150.3 163.8 149.5C191 148.7 218 153.3 245.2 159.5C272.3 165.7 299.7 173.3 327 168.7C354.3 164 381.7 147 409 146.7C436.3 146.3 463.7 162.7 491 167.7C518.3 172.7 545.7 166.3 573 159.5C600.3 152.7 627.7 145.3 654.8 146.5C682 147.7 709 157.3 736.2 160C763.3 162.7 790.7 158.3 818 154C845.3 149.7 872.7 145.3 886.3 143.2L900 141L900 0L886.3 0C872.7 0 845.3 0 818 0C790.7 0 763.3 0 736.2 0C709 0 682 0 654.8 0C627.7 0 600.3 0 573 0C545.7 0 518.3 0 491 0C463.7 0 436.3 0 409 0C381.7 0 354.3 0 327 0C299.7 0 272.3 0 245.2 0C218 0 191 0 163.8 0C136.7 0 109.3 0 82 0C54.7 0 27.3 0 13.7 0L0 0Z" opacity=".4" fill="#FFFFFF" fill-opacity="1"></path><path d="M0 111L13.7 115.8C27.3 120.7 54.7 130.3 82 134.3C109.3 138.3 136.7 136.7 163.8 132.7C191 128.7 218 122.3 245.2 117.2C272.3 112 299.7 108 327 112.2C354.3 116.3 381.7 128.7 409 131.8C436.3 135 463.7 129 491 128.2C518.3 127.3 545.7 131.7 573 134.7C600.3 137.7 627.7 139.3 654.8 141.2C682 143 709 145 736.2 142.3C763.3 139.7 790.7 132.3 818 126.8C845.3 121.3 872.7 117.7 886.3 115.8L900 114L900 0L886.3 0C872.7 0 845.3 0 818 0C790.7 0 763.3 0 736.2 0C709 0 682 0 654.8 0C627.7 0 600.3 0 573 0C545.7 0 518.3 0 491 0C463.7 0 436.3 0 409 0C381.7 0 354.3 0 327 0C299.7 0 272.3 0 245.2 0C218 0 191 0 163.8 0C136.7 0 109.3 0 82 0C54.7 0 27.3 0 13.7 0L0 0Z" opacity=".5" fill="#FFFFFF" fill-opacity="1"></path><path d="M0 78L13.7 79.3C27.3 80.7 54.7 83.3 82 85.2C109.3 87 136.7 88 163.8 88.3C191 88.7 218 88.3 245.2 90C272.3 91.7 299.7 95.3 327 98.3C354.3 101.3 381.7 103.7 409 106.3C436.3 109 463.7 112 491 107.7C518.3 103.3 545.7 91.7 573 88C600.3 84.3 627.7 88.7 654.8 91.3C682 94 709 95 736.2 98.5C763.3 102 790.7 108 818 109.7C845.3 111.3 872.7 108.7 886.3 107.3L900 106L900 0L886.3 0C872.7 0 845.3 0 818 0C790.7 0 763.3 0 736.2 0C709 0 682 0 654.8 0C627.7 0 600.3 0 573 0C545.7 0 518.3 0 491 0C463.7 0 436.3 0 409 0C381.7 0 354.3 0 327 0C299.7 0 272.3 0 245.2 0C218 0 191 0 163.8 0C136.7 0 109.3 0 82 0C54.7 0 27.3 0 13.7 0L0 0Z" opacity=".8" fill="#FFFFFF" fill-opacity="1"></path><path d="M0 62L13.7 63C27.3 64 54.7 66 82 66.8C109.3 67.7 136.7 67.3 163.8 67.8C191 68.3 218 69.7 245.2 69.5C272.3 69.3 299.7 67.7 327 69C354.3 70.3 381.7 74.7 409 74C436.3 73.3 463.7 67.7 491 64.8C518.3 62 545.7 62 573 64.2C600.3 66.3 627.7 70.7 654.8 73C682 75.3 709 75.7 736.2 73.3C763.3 71 790.7 66 818 66.2C845.3 66.3 872.7 71.7 886.3 74.3L900 77L900 0L886.3 0C872.7 0 845.3 0 818 0C790.7 0 763.3 0 736.2 0C709 0 682 0 654.8 0C627.7 0 600.3 0 573 0C545.7 0 518.3 0 491 0C463.7 0 436.3 0 409 0C381.7 0 354.3 0 327 0C299.7 0 272.3 0 245.2 0C218 0 191 0 163.8 0C136.7 0 109.3 0 82 0C54.7 0 27.3 0 13.7 0L0 0Z" opacity=".9" fill="#FFFFFF" fill-opacity="1"></path><path d="M0 26L13.7 29.8C27.3 33.7 54.7 41.3 82 40.8C109.3 40.3 136.7 31.7 163.8 27.7C191 23.7 218 24.3 245.2 29C272.3 33.7 299.7 42.3 327 45.5C354.3 48.7 381.7 46.3 409 46C436.3 45.7 463.7 47.3 491 44.3C518.3 41.3 545.7 33.7 573 33C600.3 32.3 627.7 38.7 654.8 42C682 45.3 709 45.7 736.2 43.5C763.3 41.3 790.7 36.7 818 36C845.3 35.3 872.7 38.7 886.3 40.3L900 42L900 0L886.3 0C872.7 0 845.3 0 818 0C790.7 0 763.3 0 736.2 0C709 0 682 0 654.8 0C627.7 0 600.3 0 573 0C545.7 0 518.3 0 491 0C463.7 0 436.3 0 409 0C381.7 0 354.3 0 327 0C299.7 0 272.3 0 245.2 0C218 0 191 0 163.8 0C136.7 0 109.3 0 82 0C54.7 0 27.3 0 13.7 0L0 0Z" fill="#ffffff"></path></svg>