<svg id="visual" viewBox="0 0 900 600" width="900" height="600" xmlns="http://www.w3.org/2000/svg" xmlns:xlink="http://www.w3.org/1999/xlink" version="1.1"><rect x="0" y="0" width="900" height="600" fill="#ffffff"></rect><defs><linearGradient id="grad1_0" x1="33.3%" y1="100%" x2="100%" y2="0%"><stop offset="20%" stop-color="#fcdadf" stop-opacity="1"></stop><stop offset="80%" stop-color="#fcdadf" stop-opacity="1"></stop></linearGradient></defs><defs><linearGradient id="grad1_1" x1="33.3%" y1="100%" x2="100%" y2="0%"><stop offset="20%" stop-color="#fcdadf" stop-opacity="1"></stop><stop offset="80%" stop-color="#fde3e7" stop-opacity="1"></stop></linearGradient></defs><defs><linearGradient id="grad1_2" x1="33.3%" y1="100%" x2="100%" y2="0%"><stop offset="20%" stop-color="#feecef" stop-opacity="1"></stop><stop offset="80%" stop-color="#fde3e7" stop-opacity="1"></stop></linearGradient></defs><defs><linearGradient id="grad1_3" x1="33.3%" y1="100%" x2="100%" y2="0%"><stop offset="20%" stop-color="#feecef" stop-opacity="1"></stop><stop offset="80%" stop-color="#fff6f7" stop-opacity="1"></stop></linearGradient></defs><defs><linearGradient id="grad1_4" x1="33.3%" y1="100%" x2="100%" y2="0%"><stop offset="20%" stop-color="#ffffff" stop-opacity="1"></stop><stop offset="80%" stop-color="#fff6f7" stop-opacity="1"></stop></linearGradient></defs><defs><linearGradient id="grad2_0" x1="0%" y1="100%" x2="66.7%" y2="0%"><stop offset="20%" stop-color="#fcdadf" stop-opacity="1"></stop><stop offset="80%" stop-color="#fcdadf" stop-opacity="1"></stop></linearGradient></defs><defs><linearGradient id="grad2_1" x1="0%" y1="100%" x2="66.7%" y2="0%"><stop offset="20%" stop-color="#fde3e7" stop-opacity="1"></stop><stop offset="80%" stop-color="#fcdadf" stop-opacity="1"></stop></linearGradient></defs><defs><linearGradient id="grad2_2" x1="0%" y1="100%" x2="66.7%" y2="0%"><stop offset="20%" stop-color="#fde3e7" stop-opacity="1"></stop><stop offset="80%" stop-color="#feecef" stop-opacity="1"></stop></linearGradient></defs><defs><linearGradient id="grad2_3" x1="0%" y1="100%" x2="66.7%" y2="0%"><stop offset="20%" stop-color="#fff6f7" stop-opacity="1"></stop><stop offset="80%" stop-color="#feecef" stop-opacity="1"></stop></linearGradient></defs><defs><linearGradient id="grad2_4" x1="0%" y1="100%" x2="66.7%" y2="0%"><stop offset="20%" stop-color="#fff6f7" stop-opacity="1"></stop><stop offset="80%" stop-color="#ffffff" stop-opacity="1"></stop></linearGradient></defs><g transform="translate(900, 600)"><path d="M-486.7 0C-478.3 -92.5 -469.8 -184.9 -421.5 -243.4C-373.3 -301.8 -285.4 -326.2 -208.5 -361.1C-131.6 -396 -65.8 -441.4 0 -486.7L0 0Z" fill="#fffafb"></path><path d="M-389.4 0C-382.6 -74 -375.8 -147.9 -337.2 -194.7C-298.7 -241.5 -228.3 -261 -166.8 -288.9C-105.3 -316.8 -52.6 -353.1 0 -389.4L0 0Z" fill="#fef1f3"></path><path d="M-292 0C-287 -55.5 -281.9 -111 -252.9 -146C-224 -181.1 -171.2 -195.7 -125.1 -216.7C-79 -237.6 -39.5 -264.8 0 -292L0 0Z" fill="#fde8eb"></path><path d="M-194.7 0C-191.3 -37 -187.9 -74 -168.6 -97.3C-149.3 -120.7 -114.2 -130.5 -83.4 -144.5C-52.6 -158.4 -26.3 -176.6 0 -194.7L0 0Z" fill="#fddfe3"></path><path d="M-97.3 0C-95.7 -18.5 -94 -37 -84.3 -48.7C-74.7 -60.4 -57.1 -65.2 -41.7 -72.2C-26.3 -79.2 -13.2 -88.3 0 -97.3L0 0Z" fill="#fcdadf"></path></g><g transform="translate(0, 0)"><path d="M486.7 0C430.3 59.4 373.9 118.8 340.3 196.5C306.8 274.2 296.3 370.1 243.4 421.5C190.5 473 95.2 479.9 0 486.7L0 0Z" fill="#fffafb"></path><path d="M389.4 0C344.2 47.5 299.1 95.1 272.3 157.2C245.5 219.3 237 296.1 194.7 337.2C152.4 378.4 76.2 383.9 0 389.4L0 0Z" fill="#fef1f3"></path><path d="M292 0C258.2 35.6 224.3 71.3 204.2 117.9C184.1 164.5 177.8 222.1 146 252.9C114.3 283.8 57.1 287.9 0 292L0 0Z" fill="#fde8eb"></path><path d="M194.7 0C172.1 23.8 149.5 47.5 136.1 78.6C122.7 109.7 118.5 148 97.3 168.6C76.2 189.2 38.1 191.9 0 194.7L0 0Z" fill="#fddfe3"></path><path d="M97.3 0C86.1 11.9 74.8 23.8 68.1 39.3C61.4 54.8 59.3 74 48.7 84.3C38.1 94.6 19 96 0 97.3L0 0Z" fill="#fcdadf"></path></g></svg>