<svg xmlns="http://www.w3.org/2000/svg" version="1.1" xmlns:xlink="http://www.w3.org/1999/xlink" xmlns:svgjs="http://svgjs.dev/svgjs" width="1440" height="1000" preserveAspectRatio="none" viewBox="0 0 1440 1000"><g mask="url(&quot;#SvgjsMask1010&quot;)" fill="none"><rect width="1440" height="1000" x="0" y="0" fill="rgba(237, 243, 255, 1)"></rect><path d="M0,596.327C129.428,601.752,282.638,677.042,380.736,592.437C481.866,505.217,395.282,327.324,452.059,206.448C509.875,83.36,692.982,33.678,706.743,-101.614C720.357,-235.461,617.153,-357.748,518.78,-449.526C425.778,-536.293,302.53,-593.528,175.395,-597.341C60.327,-600.792,-25.061,-492.63,-137.775,-469.218C-265.941,-442.597,-413.729,-525.789,-522.159,-452.454C-632.025,-378.148,-685.394,-231.231,-685.76,-98.597C-686.112,28.858,-580.378,124.993,-524.07,239.335C-469.799,349.54,-462.289,492.199,-360.763,561.358C-258.847,630.782,-123.207,591.163,0,596.327" fill="#d4e3ff"></path><path d="M1440 1513.9560000000001C1535.296 1511.214 1618.075 1452.714 1693.324 1394.179 1763.4560000000001 1339.624 1821.3609999999999 1271.812 1856.301 1190.118 1890.674 1109.751 1896.341 1022.509 1889.56 935.363 1882.397 843.299 1865.479 752.127 1816.1480000000001 674.066 1761.5520000000001 587.673 1691.288 505.983 1595.575 470.159 1496.929 433.23699999999997 1381.495 431.13199999999995 1286.038 475.654 1194.923 518.152 1147.748 615.979 1096.936 702.733 1053.946 776.133 1028.568 854.925 1014.74 938.857 1000.65 1024.377 987.767 1111.681 1016.063 1193.605 1045.939 1280.105 1104.12 1353.859 1177.132 1409.031 1253.959 1467.086 1343.745 1516.725 1440 1513.9560000000001" fill="#ffffff"></path></g><defs><mask id="SvgjsMask1010"><rect width="1440" height="1000" fill="#ffffff"></rect></mask></defs></svg>