<svg id="visual" viewBox="0 0 900 600" width="900" height="600" xmlns="http://www.w3.org/2000/svg" xmlns:xlink="http://www.w3.org/1999/xlink" version="1.1"><path d="M0 31L25 29C50 27 100 23 150 21C200 19 250 19 300 21C350 23 400 27 450 28C500 29 550 27 600 26C650 25 700 25 750 26C800 27 850 29 875 30L900 31L900 0L875 0C850 0 800 0 750 0C700 0 650 0 600 0C550 0 500 0 450 0C400 0 350 0 300 0C250 0 200 0 150 0C100 0 50 0 25 0L0 0Z" fill="#fcfdff"></path><path d="M0 55L25 53C50 51 100 47 150 44C200 41 250 39 300 40C350 41 400 45 450 47C500 49 550 49 600 48C650 47 700 45 750 46C800 47 850 51 875 53L900 55L900 29L875 28C850 27 800 25 750 24C700 23 650 23 600 24C550 25 500 27 450 26C400 25 350 21 300 19C250 17 200 17 150 19C100 21 50 25 25 27L0 29Z" fill="#fcfdff"></path><path d="M0 91L25 88C50 85 100 79 150 74C200 69 250 65 300 67C350 69 400 77 450 82C500 87 550 89 600 89C650 89 700 87 750 87C800 87 850 89 875 90L900 91L900 53L875 51C850 49 800 45 750 44C700 43 650 45 600 46C550 47 500 47 450 45C400 43 350 39 300 38C250 37 200 39 150 42C100 45 50 49 25 51L0 53Z" fill="#fcfdff"></path><path d="M0 115L25 113C50 111 100 107 150 104C200 101 250 99 300 102C350 105 400 113 450 118C500 123 550 125 600 125C650 125 700 123 750 123C800 123 850 125 875 126L900 127L900 89L875 88C850 87 800 85 750 85C700 85 650 87 600 87C550 87 500 85 450 80C400 75 350 67 300 65C250 63 200 67 150 72C100 77 50 83 25 86L0 89Z" fill="#fbfcff"></path><path d="M0 151L25 146C50 141 100 131 150 128C200 125 250 129 300 132C350 135 400 137 450 141C500 145 550 151 600 152C650 153 700 149 750 150C800 151 850 157 875 160L900 163L900 125L875 124C850 123 800 121 750 121C700 121 650 123 600 123C550 123 500 121 450 116C400 111 350 103 300 100C250 97 200 99 150 102C100 105 50 109 25 111L0 113Z" fill="#fbfcff"></path><path d="M0 199L25 193C50 187 100 175 150 169C200 163 250 163 300 167C350 171 400 179 450 184C500 189 550 191 600 191C650 191 700 189 750 188C800 187 850 187 875 187L900 187L900 161L875 158C850 155 800 149 750 148C700 147 650 151 600 150C550 149 500 143 450 139C400 135 350 133 300 130C250 127 200 123 150 126C100 129 50 139 25 144L0 149Z" fill="#fbfcff"></path><path d="M0 355L25 338C50 321 100 287 150 271C200 255 250 257 300 260C350 263 400 267 450 274C500 281 550 291 600 300C650 309 700 317 750 313C800 309 850 293 875 285L900 277L900 185L875 185C850 185 800 185 750 186C700 187 650 189 600 189C550 189 500 187 450 182C400 177 350 169 300 165C250 161 200 161 150 167C100 173 50 185 25 191L0 197Z" fill="#f8faff"></path><path d="M0 391L25 377C50 363 100 335 150 322C200 309 250 311 300 313C350 315 400 317 450 324C500 331 550 343 600 353C650 363 700 371 750 364C800 357 850 335 875 324L900 313L900 275L875 283C850 291 800 307 750 311C700 315 650 307 600 298C550 289 500 279 450 272C400 265 350 261 300 258C250 255 200 253 150 269C100 285 50 319 25 336L0 353Z" fill="#f2f5ff"></path><path d="M0 427L25 418C50 409 100 391 150 383C200 375 250 377 300 377C350 377 400 375 450 382C500 389 550 405 600 414C650 423 700 425 750 413C800 401 850 375 875 362L900 349L900 311L875 322C850 333 800 355 750 362C700 369 650 361 600 351C550 341 500 329 450 322C400 315 350 313 300 311C250 309 200 307 150 320C100 333 50 361 25 375L0 389Z" fill="#ecf1ff"></path><path d="M0 487L25 483C50 479 100 471 150 467C200 463 250 463 300 462C350 461 400 459 450 465C500 471 550 485 600 493C650 501 700 503 750 493C800 483 850 461 875 450L900 439L900 347L875 360C850 373 800 399 750 411C700 423 650 421 600 412C550 403 500 387 450 380C400 373 350 375 300 375C250 375 200 373 150 381C100 389 50 407 25 416L0 425Z" fill="#e5ecff"></path><path d="M0 577L25 578C50 579 100 581 150 581C200 581 250 579 300 579C350 579 400 581 450 582C500 583 550 583 600 582C650 581 700 579 750 578C800 577 850 577 875 577L900 577L900 437L875 448C850 459 800 481 750 491C700 501 650 499 600 491C550 483 500 469 450 463C400 457 350 459 300 460C250 461 200 461 150 465C100 469 50 477 25 481L0 485Z" fill="#dfe8ff"></path><path d="M0 601L25 601C50 601 100 601 150 601C200 601 250 601 300 601C350 601 400 601 450 601C500 601 550 601 600 601C650 601 700 601 750 601C800 601 850 601 875 601L900 601L900 575L875 575C850 575 800 575 750 576C700 577 650 579 600 580C550 581 500 581 450 580C400 579 350 577 300 577C250 577 200 579 150 579C100 579 50 577 25 576L0 575Z" fill="#d9e3ff"></path></svg>