<svg id="visual" viewBox="0 0 900 600" width="900" height="600" xmlns="http://www.w3.org/2000/svg" xmlns:xlink="http://www.w3.org/1999/xlink" version="1.1"><path d="M0 121L15 118C30 115 60 109 90 123C120 137 150 171 180 175C210 179 240 153 270 141C300 129 330 131 360 135C390 139 420 145 450 147C480 149 510 147 540 142C570 137 600 129 630 141C660 153 690 185 720 187C750 189 780 161 810 149C840 137 870 141 885 143L900 145L900 0L885 0C870 0 840 0 810 0C780 0 750 0 720 0C690 0 660 0 630 0C600 0 570 0 540 0C510 0 480 0 450 0C420 0 390 0 360 0C330 0 300 0 270 0C240 0 210 0 180 0C150 0 120 0 90 0C60 0 30 0 15 0L0 0Z" fill="#fff6f6"></path><path d="M0 205L15 203C30 201 60 197 90 211C120 225 150 257 180 262C210 267 240 245 270 234C300 223 330 223 360 229C390 235 420 247 450 249C480 251 510 243 540 230C570 217 600 199 630 204C660 209 690 237 720 237C750 237 780 209 810 204C840 199 870 217 885 226L900 235L900 143L885 141C870 139 840 135 810 147C780 159 750 187 720 185C690 183 660 151 630 139C600 127 570 135 540 140C510 145 480 147 450 145C420 143 390 137 360 133C330 129 300 127 270 139C240 151 210 177 180 173C150 169 120 135 90 121C60 107 30 113 15 116L0 119Z" fill="#fff4f4"></path><path d="M0 319L15 309C30 299 60 279 90 289C120 299 150 339 180 349C210 359 240 339 270 324C300 309 330 299 360 304C390 309 420 329 450 337C480 345 510 341 540 324C570 307 600 277 630 277C660 277 690 307 720 312C750 317 780 297 810 302C840 307 870 337 885 352L900 367L900 233L885 224C870 215 840 197 810 202C780 207 750 235 720 235C690 235 660 207 630 202C600 197 570 215 540 228C510 241 480 249 450 247C420 245 390 233 360 227C330 221 300 221 270 232C240 243 210 265 180 260C150 255 120 223 90 209C60 195 30 199 15 201L0 203Z" fill="#fff2f2"></path><path d="M0 487L15 487C30 487 60 487 90 485C120 483 150 479 180 474C210 469 240 463 270 466C300 469 330 481 360 489C390 497 420 501 450 498C480 495 510 485 540 484C570 483 600 491 630 491C660 491 690 483 720 479C750 475 780 475 810 481C840 487 870 499 885 505L900 511L900 365L885 350C870 335 840 305 810 300C780 295 750 315 720 310C690 305 660 275 630 275C600 275 570 305 540 322C510 339 480 343 450 335C420 327 390 307 360 302C330 297 300 307 270 322C240 337 210 357 180 347C150 337 120 297 90 287C60 277 30 297 15 307L0 317Z" fill="#ffeaea"></path><path d="M0 523L15 530C30 537 60 551 90 556C120 561 150 557 180 549C210 541 240 529 270 525C300 521 330 525 360 531C390 537 420 545 450 542C480 539 510 525 540 524C570 523 600 535 630 540C660 545 690 543 720 537C750 531 780 521 810 525C840 529 870 547 885 556L900 565L900 509L885 503C870 497 840 485 810 479C780 473 750 473 720 477C690 481 660 489 630 489C600 489 570 481 540 482C510 483 480 493 450 496C420 499 390 495 360 487C330 479 300 467 270 464C240 461 210 467 180 472C150 477 120 481 90 483C60 485 30 485 15 485L0 485Z" fill="#ffdddd"></path><path d="M0 601L15 601C30 601 60 601 90 601C120 601 150 601 180 601C210 601 240 601 270 601C300 601 330 601 360 601C390 601 420 601 450 601C480 601 510 601 540 601C570 601 600 601 630 601C660 601 690 601 720 601C750 601 780 601 810 601C840 601 870 601 885 601L900 601L900 563L885 554C870 545 840 527 810 523C780 519 750 529 720 535C690 541 660 543 630 538C600 533 570 521 540 522C510 523 480 537 450 540C420 543 390 535 360 529C330 523 300 519 270 523C240 527 210 539 180 547C150 555 120 559 90 554C60 549 30 535 15 528L0 521Z" fill="#ffd0d0"></path></svg>